<?xml version="1.0" encoding="UTF-8" standalone="no"?>
<svg
   xmlns:sketch="http://www.bohemiancoding.com/sketch/ns"
   xmlns:dc="http://purl.org/dc/elements/1.1/"
   xmlns:cc="http://creativecommons.org/ns#"
   xmlns:rdf="http://www.w3.org/1999/02/22-rdf-syntax-ns#"
   xmlns:svg="http://www.w3.org/2000/svg"
   xmlns="http://www.w3.org/2000/svg"
   xmlns:sodipodi="http://sodipodi.sourceforge.net/DTD/sodipodi-0.dtd"
   xmlns:inkscape="http://www.inkscape.org/namespaces/inkscape"
   width="43"
   height="43"
   viewBox="0 0 43 43"
   version="1.1"
   id="svg2"
   inkscape:version="0.91 r13725"
   sodipodi:docname="socket.io.svg">
  <metadata
     id="metadata22">
    <rdf:RDF>
      <cc:Work
         rdf:about="">
        <dc:format>image/svg+xml</dc:format>
        <dc:type
           rdf:resource="http://purl.org/dc/dcmitype/StillImage" />
        <dc:title>logo full</dc:title>
      </cc:Work>
    </rdf:RDF>
  </metadata>
  <sodipodi:namedview
     pagecolor="#ffffff"
     bordercolor="#666666"
     borderopacity="1"
     objecttolerance="10"
     gridtolerance="10"
     guidetolerance="10"
     inkscape:pageopacity="0"
     inkscape:pageshadow="2"
     inkscape:window-width="1280"
     inkscape:window-height="741"
     id="namedview20"
     showgrid="false"
     inkscape:zoom="2.7342657"
     inkscape:cx="71.5"
     inkscape:cy="21.5"
     inkscape:window-x="0"
     inkscape:window-y="0"
     inkscape:window-maximized="1"
     inkscape:current-layer="svg2" />
  <!-- Generator: Sketch 3.0.2 (7799) - http://www.bohemiancoding.com/sketch -->
  <title
     id="title4">logo full</title>
  <description>Created with Sketch.</description>
  <defs
     id="defs6" />
  <g
     style="fill:none;fill-rule:evenodd;stroke:none;stroke-width:1"
     sketch:type="MSLayerGroup"
     id="logo">
    <path
       style="fill:#ffffff"
       inkscape:connector-curvature="0"
       sketch:type="MSShapeGroup"
       id="Shape"
       d="M 0,0 43,0 43,43 0,43 0,0 0,0 Z" />
    <path
       style="fill:#010101"
       inkscape:connector-curvature="0"
       sketch:type="MSShapeGroup"
       id="path11"
       d="m 16.2,1.24 c 5.42,-1.39 11.41,-0.58 16.19,2.37 6.02,3.6 9.95,10.41 10.05,17.42 0.22,7.08 -3.47,14.1 -9.4,17.95 -6.6,4.44 -15.73,4.61 -22.47,0.39 C 3.7,35.27 -0.31,27 0.72,19.06 1.55,10.67 8.03,3.27 16.2,1.24 l 0,0 z" />
    <path
       style="fill:#ffffff"
       inkscape:connector-curvature="0"
       sketch:type="MSShapeGroup"
       id="path13"
       d="M 15.37,4.67 C 25.61,0.57 38.17,8.14 39.23,19.12 40.88,29 32.68,39.04 22.67,39.33 13.15,40.28 3.95,32.21 3.68,22.65 2.97,14.91 8.07,7.23 15.37,4.67 l 0,0 z" />
    <path
       style="fill:#010101"
       inkscape:connector-curvature="0"
       sketch:type="MSShapeGroup"
       id="path15"
       d="m 16.4,20.44 c 4.59,-3.75 9.08,-7.63 13.77,-11.27 -2.46,3.78 -4.99,7.51 -7.45,11.29 -2.11,0.01 -4.22,0.01 -6.32,-0.02 l 0,0 z" />
    <path
       style="fill:#010101"
       inkscape:connector-curvature="0"
       sketch:type="MSShapeGroup"
       id="path17"
       d="m 20.28,22.53 c 2.12,0 4.23,0 6.34,0.03 -4.62,3.73 -9.09,7.64 -13.79,11.27 2.46,-3.78 4.99,-7.52 7.45,-11.3 l 0,0 z" />
  </g>
</svg>
